<svg width="122" height="41" viewBox="0 0 122 41" fill="none" xmlns="http://www.w3.org/2000/svg">
<path fill-rule="evenodd" clip-rule="evenodd" d="M62.8145 8.03396C62.9054 8.58901 64.2248 10.1404 64.4068 10.4771C64.6707 10.4316 65.5033 9.86289 65.7944 9.70821C69.566 7.64269 73.7926 7.54715 77.4869 9.69911C79.1839 10.6864 80.7671 12.2287 81.9409 13.7755C82.5187 14.5399 83.001 15.5408 83.5242 16.4325C83.9018 17.0785 83.9609 17.1468 84.8754 17.1832C85.5942 17.2105 86.3267 17.2105 87.0456 17.2196C92.7098 17.2878 98.3831 17.256 104.052 17.2742C106.882 17.2833 109.716 17.2924 112.546 17.3015C112.896 17.3015 114.439 17.2423 114.593 17.3652L116.559 19.6445C116.736 19.8538 117.469 20.6591 117.546 20.8274C117.428 21.1186 115.713 23.266 115.517 23.2705C115.162 23.2842 113.624 21.2278 112.45 21.3233C111.941 21.3642 111.131 22.0376 110.872 22.2651C110.622 22.4834 110.44 22.6245 110.185 22.852C110.012 23.0067 109.671 23.316 109.484 23.4207C109.211 23.3024 108.865 22.761 108.551 22.4698C108.488 22.4107 108.438 22.3788 108.379 22.3151C107.123 20.9639 106.541 20.9457 105.012 22.3834C104.803 22.579 103.793 23.4707 103.602 23.5481L101.823 22.1286C101.304 21.7373 100.535 20.9684 99.6388 21.4825C98.9882 21.8556 98.374 22.438 97.8372 22.8838L96.5497 23.9985C96.3495 24.1577 96.1993 24.1077 95.8718 24.1031L86.3995 23.9939C85.8672 23.9894 85.3258 23.9712 84.7935 23.9712C83.6015 23.9757 83.0328 25.7 82.5369 26.569C82.3322 26.9284 82.1502 27.215 81.9273 27.5653C81.577 28.1204 81.2357 28.448 80.8399 28.8802C79.9118 29.8856 78.9291 30.6318 77.6689 31.3187C76.1811 32.1331 74.6707 32.6336 72.6825 32.7337C70.9992 32.8201 69.9073 32.7519 68.3377 32.2833C67.9282 32.1604 67.4732 31.9693 67.0774 31.8829L65.9264 34.6217C66.395 34.9266 68.1102 35.3679 68.7426 35.5044C69.971 35.7682 70.9264 35.7864 72.2139 35.7591C76.4996 35.6545 79.7799 34.1395 82.6461 31.346C83.2467 30.7591 83.8063 30.1222 84.3659 29.3442C84.6161 28.9939 84.8527 28.6163 85.0892 28.2296C85.3167 27.8611 85.6124 27.4016 85.7808 27.0376C89.2385 26.9875 92.7007 27.033 96.1538 26.9875C96.4905 26.983 96.8317 26.9784 97.1684 26.9602C97.9919 26.9147 98.2876 26.4598 99.0974 25.7819C99.3704 25.5544 99.9755 25.0039 100.303 24.8629C100.612 24.8401 102.655 26.8783 103.415 26.9966C104.343 27.1377 104.935 26.4461 105.603 25.8774C105.89 25.6318 106.454 25.1359 106.677 24.9812C107.032 25.1996 107.596 25.8729 107.919 26.205C109.157 27.4698 109.803 27.1923 111.167 25.973C111.604 25.5863 112.073 25.2314 112.551 24.831C112.742 24.9129 114.211 26.1777 114.561 26.4461C114.957 26.751 115.144 27.0194 115.863 27.0012C116.477 26.9875 116.659 26.7828 117.036 26.3233C118.137 24.9994 119.234 23.6709 120.317 22.2514C120.881 21.5098 121.463 20.791 120.631 19.7628C120.066 19.0667 119.534 18.4434 118.947 17.7701C118.715 17.5016 117.746 16.337 117.464 16.0458C117.346 15.9275 117.328 15.9138 117.237 15.8047C117.082 15.6181 116.968 15.5226 116.804 15.3451C116.104 14.5808 116.049 14.3806 115.03 14.326C112.682 14.2032 110.171 14.2714 107.801 14.2623C100.467 14.2396 93.0965 14.2714 85.7717 14.2214C85.6124 13.7437 84.4296 12.0103 84.0883 11.5735L83.0965 10.3997L82.0001 9.28054C80.3713 7.87017 78.7471 6.75552 76.5906 5.92295C72.2503 4.28055 66.3631 5.26326 62.8145 8.03396Z" fill="#323232"/>
<path fill-rule="evenodd" clip-rule="evenodd" d="M61.1686 21.6915C61.1459 22.0009 61.2778 22.3785 61.3824 22.5787L62.5016 22.6469C62.538 22.8835 62.5562 23.2475 62.4379 23.4295L61.8192 23.5387C61.8237 23.8708 62.3833 24.5851 62.488 24.6124H64.0894C64.1122 25.4677 64.0257 25.3448 63.3752 25.4085C63.548 25.5587 63.8438 25.6679 64.0849 25.7816C65.1358 26.2912 65.0358 26.2639 65.0358 24.2984H65.8683L65.8865 22.8244H66.8055L66.8237 24.2984L67.6654 24.303C67.6654 24.7307 67.5744 25.7862 67.7974 26.0318C68.0749 26.1638 69.0303 25.5587 69.326 25.4404C68.862 25.2038 68.5389 25.6815 68.6254 24.6124H70.2223C70.4088 24.5032 70.882 23.8116 70.882 23.5569L70.2223 23.4204L70.1813 22.6424C70.427 22.6287 71.1186 22.6606 71.2732 22.5787C71.4507 22.4877 71.5553 21.96 71.5371 21.6915C70.7 21.6915 69.7355 21.7006 68.9029 21.6733C68.1568 21.646 68.5617 21.4731 68.1977 21.4731H64.5217C64.0348 21.4731 64.8902 21.6688 62.9657 21.687C62.3651 21.6961 61.7646 21.6915 61.1686 21.6915Z" fill="#323232"/>
<path fill-rule="evenodd" clip-rule="evenodd" d="M63.3882 16.8099C64.2481 16.9646 64.1389 16.7052 64.1889 17.6061L62.4374 17.6243C62.3327 17.8199 61.8414 18.334 61.8459 18.5387L62.8377 18.5569L62.8332 19.4896C61.4501 19.5078 61.3864 19.3577 61.2181 20.0856C61.2181 20.0901 61.1999 20.1902 61.1999 20.1902C61.209 20.3267 61.1635 20.2221 61.2454 20.304C61.5138 20.4086 63.6976 20.3222 64.2481 20.395C64.3209 20.5587 64.2663 20.5997 64.4301 20.677C64.5211 20.7225 64.7804 20.7271 64.885 20.7316C65.6812 20.7544 67.1826 20.7635 67.906 20.7271C68.6248 20.6952 68.2199 20.4951 68.5383 20.3859C68.8068 20.2949 71.2636 20.4314 71.4501 20.2994C71.5183 20.2539 71.5638 20.3904 71.4091 19.8672C71.2636 19.3713 71.027 19.5078 69.885 19.4896L69.8532 18.5524L70.8495 18.5433C70.845 18.3067 70.3718 17.8608 70.2581 17.6288L68.5201 17.6106L68.5156 16.9964C68.7067 16.8099 69.0525 16.8645 69.3027 16.8099C69.0843 16.6597 67.9696 16.1411 67.6739 16.1638L67.6512 17.92L66.8277 17.9291L66.8141 19.3941L65.895 19.3986L65.8768 17.9245L65.0352 17.92L65.0261 16.1638C64.7349 16.1229 63.5838 16.6597 63.3882 16.8099Z" fill="#323232"/>
<path fill-rule="evenodd" clip-rule="evenodd" d="M33.068 14.7443C32.5084 14.5624 27.5721 14.4395 26.7623 14.5032C26.3756 16.3412 25.4247 18.3021 23.6277 18.8253C21.6759 19.394 19.2964 18.9209 18.3046 17.0328C17.6722 15.8271 17.4402 14.5032 17.4038 12.9427C17.3674 11.3958 17.4129 9.83078 17.9907 8.5387C18.5367 7.31941 19.2236 6.48228 20.3792 5.94543C21.6531 5.35399 23.3092 5.48592 24.4693 6.12742C25.0426 6.44589 25.452 6.80531 25.766 7.34216C26.1117 7.93815 26.2073 8.49775 26.4802 9.13469C27.5175 9.13924 32.1399 9.19384 32.8224 9.04825C32.8588 7.71067 32.0034 5.90904 31.4939 4.93542C30.8524 3.71159 29.9789 2.62423 29.0007 1.92815C27.8952 1.13652 26.6304 0.67246 25.0016 0.426782C23.4821 0.194753 21.3119 0.0946625 19.7832 0.322142C12.7769 1.364 10.1472 6.18656 10.2928 12.8472C10.3429 15.2402 10.7796 17.4422 11.9944 19.4077C12.3856 20.0401 12.7405 20.4723 13.1545 20.9955C13.2591 21.1274 13.3683 21.2184 13.4775 21.3367C13.6004 21.4732 13.6914 21.5733 13.8278 21.6961C14.5967 22.4058 15.2473 22.9199 16.2801 23.3704C17.6222 23.9573 19.1054 24.2939 20.7341 24.4168C22.2036 24.5305 24.5558 24.4486 25.9343 24.1119C28.8324 23.4022 30.7432 21.7325 32.0307 19.2075C32.4584 18.3795 33.2728 15.8499 33.068 14.7443Z" fill="#323232"/>
<path fill-rule="evenodd" clip-rule="evenodd" d="M0.388672 23.9892H7.55427L7.56337 23.8072V0.508789H0.388672V23.9892Z" fill="#323232"/>
<path fill-rule="evenodd" clip-rule="evenodd" d="M38.7886 37.3282L34.926 37.3237C34.9169 37.6467 35.2763 38.6066 35.4128 38.8933C36.2271 40.563 38.0151 40.8177 39.8259 40.8541C42.2098 40.8996 44.6939 40.6631 45.4173 37.9515C45.7949 36.5275 45.1534 35.4765 44.471 34.835C42.8513 33.3064 37.6694 33.8614 39.0934 32.1462C39.4846 31.6731 40.9269 31.6321 41.5047 32.1963C41.6502 32.3373 41.8231 32.7058 42.0006 32.8105L45.3946 32.7832C45.4082 32.5011 44.885 31.5411 44.7531 31.3046C43.8704 29.7304 41.6548 29.5575 39.9259 29.6303C38.6657 29.6849 37.3827 29.8942 36.5229 30.5129C34.3209 32.0871 35.1034 35.0443 37.2599 35.7814C38.3381 36.1499 39.6075 36.3501 40.7585 36.623C41.2772 36.7459 42.0188 36.8505 42.2872 37.2145C42.5829 37.6103 42.3736 38.229 41.6138 38.5248C40.7813 38.8478 39.8122 38.6931 39.198 37.9925C38.9978 37.7695 38.966 37.542 38.7886 37.3282Z" fill="#323232"/>
<path fill-rule="evenodd" clip-rule="evenodd" d="M52.2363 40.6402L52.4092 40.6539H56.1308L56.3128 40.6493L56.3173 25.713L52.2363 25.7085V40.6402Z" fill="#323232"/>
<path fill-rule="evenodd" clip-rule="evenodd" d="M19.1014 31.5462L19.0696 29.8902L15.1979 29.8856L15.1797 40.6499L19.3835 40.659C19.47 38.8847 19.2925 37.0285 19.479 35.2587C19.843 31.801 22.0905 33.1477 22.4135 32.9566C22.6501 32.6791 23.5782 30.5908 23.6692 30.1358C22.3817 29.5626 20.8348 29.2805 19.8021 30.5316C19.5518 30.8183 19.338 31.2596 19.1014 31.5462Z" fill="#323232"/>
<path fill-rule="evenodd" clip-rule="evenodd" d="M50.7464 40.6539L50.7646 29.9214L46.7155 29.9487L46.7109 40.6493L50.7464 40.6539Z" fill="#323232"/>
<path fill-rule="evenodd" clip-rule="evenodd" d="M36.0078 0.604004L44.4109 0.635851C45.5346 0.640401 46.6538 0.6495 47.7776 0.654049C49.0697 0.663149 49.784 0.567607 50.9305 0.87243C54.0333 1.705 55.1661 3.07443 56.0169 5.93612C56.3672 7.10992 56.3445 7.99254 56.3445 9.23912C56.3445 10.6768 55.9714 12.0735 55.2116 13.2564C52.6002 17.3328 48.1507 16.7141 43.3099 16.8187C43.1598 17.2146 43.3235 23.0335 43.269 24.0753H36.0124L36.0078 23.8933V0.604004ZM43.2735 11.473C44.006 11.5003 44.8477 11.4457 45.5938 11.4275C46.3445 11.4093 47.1225 11.4002 47.8731 11.3319C48.7148 11.2546 49.0196 10.9407 49.4427 10.5312C49.8932 10.099 50.1479 9.72593 50.1479 8.81601C50.1479 7.45114 49.1834 6.44568 47.9186 6.31374C47.1771 6.23639 44.0151 6.14085 43.2826 6.1727L43.2735 11.473Z" fill="#323232"/>
<path fill-rule="evenodd" clip-rule="evenodd" d="M46.7109 28.5292C47.5253 28.5565 49.7228 28.5565 50.5781 28.5247C50.8966 28.511 50.7783 28.3655 50.7828 27.4601C50.7874 26.8823 50.7919 26.3045 50.7919 25.7267L46.7109 25.7085V28.5292Z" fill="#323232"/>
<path fill-rule="evenodd" clip-rule="evenodd" d="M0.423828 25.7048C1.79325 25.6639 3.24002 25.7094 4.61855 25.7185C5.98797 25.723 7.35285 25.7321 8.71773 25.7503C10.6286 25.7776 12.0708 26.0642 13.0762 27.6748C13.4538 28.2799 13.4538 28.5847 13.4538 29.3945C13.4584 30.7594 13.0944 31.4964 12.0799 32.188C11.9252 32.2926 11.7841 32.3654 11.634 32.4519C11.5703 32.4883 11.4702 32.5429 11.4247 32.5701C11.402 32.5838 11.3292 32.6384 11.3155 32.652C11.2473 32.7203 11.2973 32.652 11.2473 32.7385C11.3656 32.8386 11.3883 32.8295 11.5521 32.875C11.6431 32.9023 11.7478 32.9341 11.8387 32.966C12.3756 33.157 12.8397 33.4755 13.2264 33.8395C14.4502 34.9814 14.4593 37.1561 13.6904 38.4664C12.2892 40.8549 9.5139 40.5592 6.73866 40.6093C4.87333 40.6411 2.22546 40.7321 0.423828 40.6821V25.7048ZM5.12355 37.4655C6.10171 37.5155 7.9443 37.5838 8.69043 37.279C9.80508 36.8195 9.97796 35.3408 8.95431 34.7176C8.28097 34.3035 5.86059 34.3763 5.03256 34.3672C5.03711 35.1361 4.98706 36.8149 5.12355 37.4655ZM5.05076 31.5465C5.41928 31.6329 7.23911 31.5601 7.68497 31.5192C8.53574 31.4373 9.00435 31.0415 9.0089 30.1498C9.01345 29.2671 8.51755 28.8713 7.67587 28.7894C6.87514 28.7121 5.85604 28.7166 5.03711 28.7212L5.05076 31.5465Z" fill="#323232"/>
<path fill-rule="evenodd" clip-rule="evenodd" d="M23.2347 31.6552C23.8626 30.4359 24.9226 30.031 26.3284 29.799C27.9663 29.5351 30.7825 29.526 32.2338 30.0993C33.0436 30.4177 33.5759 30.9682 33.9308 31.7007C34.3403 32.5515 34.2857 33.5888 34.313 34.6216C34.3403 35.6953 34.3585 36.7735 34.3903 37.8472C34.4039 38.3613 34.413 38.9073 34.4631 39.4168C34.504 39.8445 34.8134 40.4405 34.8089 40.6452L31.0191 40.6498C30.8735 40.304 30.7779 40.1584 30.7006 39.7944C30.5914 39.2667 30.4777 39.4896 29.6405 40.0447C28.5213 40.7862 27.1474 40.9364 25.7779 40.8499C25.323 40.8181 24.8726 40.7408 24.4722 40.6043C23.4849 40.2585 22.5295 39.2621 22.4886 37.9291C22.4249 35.7817 23.7215 35.1903 25.5004 34.7262C26.6469 34.4305 29.5996 33.9027 30.3412 33.4023C30.3548 32.2694 29.7042 32.0101 28.6078 32.0692C26.9244 32.1557 26.9153 33.0974 26.6742 33.2248C26.3239 33.2749 23.1619 32.9883 22.9026 32.8927C22.7752 32.5242 23.08 31.9601 23.2347 31.6552ZM30.3548 35.5724C29.7998 35.627 27.1064 36.314 26.7151 37.0237C26.1783 37.9837 27.4294 39.4896 29.4585 38.1202C29.7497 37.9246 30.0773 37.5879 30.191 37.1557C30.2911 36.769 30.4049 35.9728 30.3548 35.5724Z" fill="#323232"/>
<path fill-rule="evenodd" clip-rule="evenodd" d="M50.7451 40.6545C50.8771 40.5726 50.8134 40.1858 50.8134 40.0403C50.8134 38.5662 50.8725 30.2814 50.7906 29.8765C50.2856 29.8219 48.0245 29.8674 47.1828 29.8674C47.11 29.8674 47.0145 29.8583 46.9417 29.8628C46.6778 29.8719 46.7915 29.8446 46.7188 29.9447L50.7724 29.922L50.7451 40.6545Z" fill="#323232"/>
</svg>
