<svg width="58" height="47" viewBox="0 0 58 47" fill="none" xmlns="http://www.w3.org/2000/svg">
<path d="M0.0449219 12.8827C0.0449219 12.8827 4.29403 15.8049 5.99478 17.2998C5.99478 17.2998 16.4239 10.0985 28.529 4.76209C28.529 4.76209 20.9721 4.1644 16.446 4.30243C16.446 4.30243 11.9212 5.95886 0.0449219 12.8827Z" fill="#323232"/>
<path d="M21.6836 2.16302C21.6836 2.16302 31.5614 5.24535 40.5655 10.8358L41.4159 4.62419C41.4159 4.62419 34.5936 1.47284 28.5982 0C28.5982 0 25.9107 0.666711 21.6836 2.16302Z" fill="#323232"/>
<path d="M47.2053 7.38477C47.2053 7.38477 40.3596 10.238 28.668 18.7727C28.668 18.7727 36.7072 19.946 45.4591 21.9931C45.4591 21.9931 51.9134 16.3101 57.0363 12.8827C57.0363 12.8827 51.7535 9.56987 47.2053 7.38477Z" fill="#323232"/>
<path d="M39.5535 27.2856L28.5731 37.7307C28.5731 37.7307 14.2849 24.0652 10.9082 21.3735C10.9082 21.3735 15.4798 12.4012 16.5356 10.8594C16.5369 10.8594 29.7226 18.911 39.5535 27.2856Z" fill="#323232"/>
<path d="M28.5175 14.9078C32.3424 14.9078 35.4431 13.1205 35.4431 10.9158C35.4431 8.7111 32.3424 6.92383 28.5175 6.92383C24.6925 6.92383 21.5918 8.7111 21.5918 10.9158C21.5918 13.1205 24.6925 14.9078 28.5175 14.9078Z" fill="#323232"/>
<path d="M47.7891 42.042C47.7891 42.042 47.8345 42.5141 47.8345 42.8357C47.8345 43.1573 47.8345 46.9312 47.8345 46.9312H49.2817C49.2817 46.9312 49.2927 44.8607 49.2927 44.3776C49.2927 43.8944 49.5449 43.3768 50.0273 43.2843C50.5097 43.1918 50.7399 43.2954 50.7399 43.2954V42.0641C50.7399 42.0641 50.2341 42.0185 49.8785 42.1676C49.5229 42.3167 49.1894 42.9158 49.1894 42.9158L49.1094 42.053L47.7891 42.042Z" fill="#323232"/>
<path d="M41.3564 39.9365L41.3453 42.7663C41.3453 42.7663 40.9773 41.996 39.9561 42.0071C38.9334 42.0181 38.3711 42.9623 38.3711 44.4337C38.3711 45.9066 39.0258 46.9984 40.0939 46.9984C41.162 46.9984 41.3577 46.2047 41.3577 46.2047L41.4721 46.9184H42.7815V39.9365H41.3564ZM40.5873 45.9756C40.1504 45.9756 39.8527 45.5725 39.8527 44.4517C39.8527 43.3308 40.1504 42.9278 40.5873 42.9278C41.0242 42.9278 41.3343 43.4909 41.3343 44.4517C41.3343 45.411 41.0256 45.9756 40.5873 45.9756Z" fill="#323232"/>
<path d="M29.8164 46.9296V39.9478H33.6644V41.0976H31.3559V42.8009H33.5721V43.9508H31.3559V46.942L29.8164 46.9296Z" fill="#323232"/>
<path d="M17.9297 42.0529H20.4794V41.0756L21.9376 40.6035V42.0764H22.8803V43.0771H21.9156C21.9156 43.0771 21.9156 44.9751 21.9156 45.4927C21.9156 46.0104 22.6736 46.0904 22.8914 45.8723V46.8966C22.8914 46.8966 22.5578 47.0001 21.8921 47.0001C21.2264 47.0001 20.4794 46.6094 20.4794 45.5052C20.4794 44.4009 20.4794 43.0895 20.4794 43.0895H19.3879V46.92H17.9407L17.9297 42.0529Z" fill="#323232"/>
<path d="M13.174 42.0876C13.174 42.0876 12.6571 41.9606 11.589 42.0186C10.5208 42.0766 9.60156 43.0428 9.60156 44.5377C9.60156 46.0326 10.5663 46.9989 11.7034 46.9989C12.8404 46.9989 13.185 46.9299 13.185 46.9299V45.7911C13.185 45.7911 12.9204 45.8601 12.0714 45.8601C11.221 45.8601 11.1411 44.7103 11.1411 44.3528C11.1411 43.9966 11.4167 43.225 12.0025 43.156C12.5882 43.087 13.094 43.167 13.094 43.167L13.174 42.0876Z" fill="#323232"/>
<path d="M3.97347 43.9169C3.80119 43.5607 3.37669 43.4572 3.37669 43.4572C3.37669 43.4572 4.70945 43.0321 4.70945 41.7207C4.70945 40.4094 3.41114 39.9263 2.96322 39.9263C2.51529 39.9263 0 39.9263 0 39.9263V46.9426H1.61943V44.0549C1.61943 44.0549 2.08528 43.9914 2.37746 44.2854C2.72754 44.636 3.28435 46.9316 3.28435 46.9316H4.99612C4.99612 46.9302 4.14575 44.273 3.97347 43.9169ZM2.33198 42.9161C2.20518 42.9161 1.57395 42.9161 1.57395 42.9161V41.0871C1.57395 41.0871 2.12525 41.1106 2.2865 41.1106C2.44775 41.1106 3.05556 41.2832 3.05556 41.9844C3.05556 42.6856 2.4574 42.9161 2.33198 42.9161Z" fill="#323232"/>
<path d="M6.37377 44.8716H9.23361C9.23361 42.3414 7.98217 42.0073 7.21174 42.0073C6.4413 42.0073 5.01758 42.4214 5.01758 44.4119C5.01758 46.4024 6.23456 47.0001 7.32613 47.0001C8.41769 47.0001 8.95796 46.9076 8.95796 46.9076V45.8143C8.95796 45.8143 8.60238 46.0449 7.65966 46.0449C6.32828 46.0449 6.37377 44.8716 6.37377 44.8716ZM7.15523 42.87C7.97114 42.87 7.93669 44.0889 7.93669 44.0889L6.38617 44.0779C6.38479 44.0779 6.31588 42.87 7.15523 42.87Z" fill="#323232"/>
<path d="M14.6355 44.8716H17.4953C17.4953 42.3414 16.2439 42.0073 15.4735 42.0073C14.703 42.0073 13.2793 42.4214 13.2793 44.4119C13.2793 46.4024 14.4963 47.0001 15.5878 47.0001C16.6794 47.0001 17.2183 46.9076 17.2183 46.9076V45.8143C17.2183 45.8143 16.8627 46.0449 15.92 46.0449C14.5886 46.0449 14.6355 44.8716 14.6355 44.8716ZM15.4156 42.87C16.2315 42.87 16.197 44.0889 16.197 44.0889L14.6465 44.0779C14.6465 44.0779 14.5776 42.87 15.4156 42.87Z" fill="#323232"/>
<path d="M35.1355 44.8716H37.9953C37.9953 42.3414 36.7439 42.0073 35.9735 42.0073C35.2044 42.0073 33.7793 42.4214 33.7793 44.4119C33.7793 46.4024 34.9963 47.0001 36.0878 47.0001C37.1794 47.0001 37.7183 46.9076 37.7183 46.9076V45.8143C37.7183 45.8143 37.3627 46.0449 36.42 46.0449C35.0886 46.0449 35.1355 44.8716 35.1355 44.8716ZM35.9156 42.87C36.7315 42.87 36.697 44.0889 36.697 44.0889L35.1465 44.0779C35.1465 44.0779 35.0776 42.87 35.9156 42.87Z" fill="#323232"/>
<path d="M44.5749 44.8716H47.4348C47.4348 42.3414 46.1833 42.0073 45.4129 42.0073C44.6439 42.0073 43.2188 42.4214 43.2188 44.4119C43.2188 46.4024 44.4357 47.0001 45.5273 47.0001C46.6189 47.0001 47.1578 46.9076 47.1578 46.9076V45.8143C47.1578 45.8143 46.8022 46.0449 45.8595 46.0449C44.5281 46.0449 44.5749 44.8716 44.5749 44.8716ZM45.355 42.87C46.1709 42.87 46.1365 44.0889 46.1365 44.0889L44.586 44.0779C44.586 44.0779 44.5171 42.87 45.355 42.87Z" fill="#323232"/>
<path d="M19.4113 39.9243H17.9297V41.1777H19.4113V39.9243Z" fill="#323232"/>
<path d="M25.6007 42.0073C24.1645 42.0073 23.6946 42.0653 23.6946 42.0653V43.2731C23.6946 43.2731 24.2913 42.9625 25.1307 42.9625C25.9687 42.9625 26.0265 43.5381 26.0265 43.9053C26.0265 43.9053 25.5552 43.8473 24.7282 43.9633C23.9013 44.0779 23.1543 44.492 23.1543 45.6197C23.1543 46.7475 24.2803 47.0001 24.6704 47.0001C25.405 47.0001 26.0031 46.3334 26.0031 46.3334V46.9435H27.3469C27.3469 46.9435 27.3469 43.7921 27.3469 43.4346C27.3469 43.0771 27.0368 42.0073 25.6007 42.0073ZM25.9907 45.2277C25.9907 45.3768 25.7495 46.0559 25.0949 46.0559C24.4402 46.0559 24.4981 45.3892 24.4981 45.3077C24.4981 45.2277 24.6249 44.8481 25.0728 44.6976C25.5207 44.5472 25.8074 44.5596 26.0141 44.5706C26.0141 44.572 25.9907 45.0786 25.9907 45.2277Z" fill="#323232"/>
<path d="M53.0851 42.0073C51.6489 42.0073 51.1789 42.0653 51.1789 42.0653V43.2731C51.1789 43.2731 51.7757 42.9625 52.6151 42.9625C53.453 42.9625 53.5109 43.5381 53.5109 43.9053C53.5109 43.9053 53.0396 43.8473 52.2126 43.9633C51.3857 44.0779 50.6387 44.492 50.6387 45.6197C50.6387 46.7475 51.7647 47.0001 52.1547 47.0001C52.8893 47.0001 53.4875 46.3334 53.4875 46.3334V46.9435H54.8313C54.8313 46.9435 54.8313 43.7921 54.8313 43.4346C54.8299 43.0771 54.5198 42.0073 53.0851 42.0073ZM53.4751 45.2277C53.4751 45.3768 53.2339 46.0559 52.5792 46.0559C51.9246 46.0559 51.9825 45.3892 51.9825 45.3077C51.9825 45.2277 52.1093 44.8481 52.5572 44.6976C53.0051 44.5472 53.2918 44.5596 53.4985 44.5706C53.4985 44.572 53.4751 45.0786 53.4751 45.2277Z" fill="#323232"/>
<path d="M56.9426 39.9243H55.4844V46.9407H56.9426V39.9243Z" fill="#323232"/>
</svg>
